<svg width="553" height="553" viewBox="0 0 553 553" fill="none" xmlns="http://www.w3.org/2000/svg">
<g clip-path="url(#clip0_1_154)">
<circle opacity="0.5" cx="276.14" cy="276.5" r="247.804" stroke="url(#paint0_linear_1_154)" stroke-dasharray="2 2"/>
<line opacity="0.5" x1="34.7302" y1="34.3827" x2="518.258" y2="517.91" stroke="url(#paint1_linear_1_154)" stroke-dasharray="2 2"/>
<line opacity="0.5" y1="276" x2="552.28" y2="276" stroke="url(#paint2_linear_1_154)" stroke-dasharray="2 2"/>
<line opacity="0.5" x1="276.64" y1="0.360046" x2="276.64" y2="552.64" stroke="url(#paint3_linear_1_154)" stroke-dasharray="2 2"/>
<line opacity="0.5" x1="518.158" y1="35.1896" x2="34.8298" y2="518.518" stroke="url(#paint4_linear_1_154)" stroke-dasharray="2 2"/>
<rect opacity="0.5" x="299.602" y="265.004" width="231.414" height="231.414" rx="115.707" fill="url(#paint5_linear_1_154)"/>
<rect x="19.3735" y="51.4464" width="136.759" height="136.759" rx="21" fill="url(#paint6_linear_1_154)"/>
<path d="M352.065 363.075V374.711H349.957V363.075H352.065ZM357.496 374.865C356.81 374.865 356.196 374.688 355.655 374.336C355.113 373.984 354.685 373.472 354.371 372.802C354.056 372.132 353.899 371.317 353.899 370.359C353.899 369.389 354.058 368.571 354.376 367.904C354.698 367.234 355.132 366.728 355.677 366.387C356.223 366.043 356.831 365.87 357.501 365.87C358.013 365.87 358.433 365.957 358.763 366.132C359.092 366.302 359.354 366.508 359.547 366.751C359.74 366.99 359.89 367.215 359.996 367.427H360.081V363.075H362.143V374.711H360.121V373.336H359.996C359.89 373.548 359.736 373.774 359.535 374.012C359.335 374.247 359.069 374.448 358.74 374.615C358.41 374.781 357.996 374.865 357.496 374.865ZM358.069 373.177C358.505 373.177 358.876 373.06 359.183 372.825C359.49 372.586 359.723 372.255 359.882 371.83C360.041 371.406 360.121 370.912 360.121 370.347C360.121 369.783 360.041 369.293 359.882 368.876C359.727 368.459 359.496 368.135 359.189 367.904C358.886 367.673 358.513 367.558 358.069 367.558C357.611 367.558 357.229 367.677 356.922 367.916C356.615 368.154 356.384 368.484 356.229 368.904C356.073 369.325 355.996 369.806 355.996 370.347C355.996 370.893 356.073 371.38 356.229 371.808C356.388 372.232 356.621 372.567 356.927 372.813C357.238 373.056 357.619 373.177 358.069 373.177ZM368.199 374.882C367.324 374.882 366.568 374.7 365.932 374.336C365.299 373.969 364.812 373.45 364.471 372.779C364.131 372.105 363.96 371.311 363.96 370.399C363.96 369.501 364.131 368.713 364.471 368.035C364.816 367.353 365.297 366.823 365.915 366.444C366.532 366.061 367.257 365.87 368.091 365.87C368.629 365.87 369.136 365.957 369.613 366.132C370.095 366.302 370.519 366.567 370.886 366.927C371.257 367.287 371.549 367.745 371.761 368.302C371.973 368.855 372.079 369.514 372.079 370.279V370.91H364.926V369.524H370.108C370.104 369.13 370.019 368.779 369.852 368.472C369.685 368.162 369.453 367.918 369.153 367.74C368.858 367.561 368.513 367.472 368.119 367.472C367.699 367.472 367.329 367.575 367.011 367.779C366.693 367.98 366.445 368.245 366.267 368.575C366.093 368.901 366.004 369.258 366 369.649V370.859C366 371.366 366.093 371.802 366.278 372.166C366.464 372.526 366.723 372.802 367.057 372.995C367.39 373.185 367.78 373.279 368.227 373.279C368.526 373.279 368.797 373.238 369.04 373.154C369.282 373.067 369.492 372.94 369.67 372.774C369.848 372.607 369.983 372.401 370.074 372.154L371.994 372.37C371.873 372.878 371.642 373.321 371.301 373.7C370.964 374.075 370.532 374.366 370.006 374.575C369.479 374.779 368.877 374.882 368.199 374.882ZM373.819 374.711V365.984H375.876V374.711H373.819ZM374.854 364.745C374.528 364.745 374.247 364.637 374.013 364.421C373.778 364.202 373.66 363.938 373.66 363.632C373.66 363.321 373.778 363.058 374.013 362.842C374.247 362.622 374.528 362.512 374.854 362.512C375.183 362.512 375.463 362.622 375.694 362.842C375.929 363.058 376.047 363.321 376.047 363.632C376.047 363.938 375.929 364.202 375.694 364.421C375.463 364.637 375.183 364.745 374.854 364.745ZM380.503 374.887C379.95 374.887 379.452 374.789 379.008 374.592C378.569 374.391 378.22 374.096 377.963 373.705C377.709 373.315 377.582 372.834 377.582 372.262C377.582 371.77 377.673 371.363 377.855 371.041C378.037 370.719 378.285 370.461 378.599 370.268C378.914 370.075 379.268 369.929 379.662 369.83C380.06 369.728 380.47 369.654 380.895 369.609C381.406 369.556 381.821 369.508 382.139 369.467C382.457 369.421 382.688 369.353 382.832 369.262C382.98 369.168 383.054 369.022 383.054 368.825V368.791C383.054 368.363 382.927 368.031 382.673 367.796C382.419 367.561 382.054 367.444 381.577 367.444C381.073 367.444 380.673 367.554 380.378 367.774C380.086 367.993 379.889 368.253 379.787 368.552L377.866 368.279C378.018 367.749 378.268 367.306 378.616 366.95C378.965 366.59 379.391 366.321 379.895 366.143C380.399 365.961 380.955 365.87 381.565 365.87C381.986 365.87 382.404 365.919 382.821 366.018C383.238 366.116 383.618 366.279 383.963 366.507C384.308 366.73 384.584 367.035 384.792 367.421C385.005 367.808 385.111 368.291 385.111 368.87V374.711H383.133V373.512H383.065C382.94 373.755 382.764 373.982 382.537 374.194C382.313 374.402 382.031 374.571 381.69 374.7C381.353 374.825 380.957 374.887 380.503 374.887ZM381.037 373.376C381.45 373.376 381.808 373.294 382.111 373.132C382.414 372.965 382.647 372.745 382.81 372.472C382.976 372.2 383.06 371.902 383.06 371.58V370.552C382.995 370.605 382.885 370.654 382.73 370.7C382.578 370.745 382.408 370.785 382.219 370.819C382.029 370.853 381.842 370.883 381.656 370.91C381.47 370.936 381.31 370.959 381.173 370.978C380.866 371.02 380.592 371.088 380.349 371.183C380.107 371.277 379.916 371.41 379.775 371.58C379.635 371.747 379.565 371.963 379.565 372.228C379.565 372.607 379.703 372.893 379.98 373.086C380.256 373.279 380.609 373.376 381.037 373.376ZM394.077 368.291L392.202 368.495C392.149 368.306 392.056 368.128 391.923 367.961C391.794 367.794 391.62 367.66 391.4 367.558C391.181 367.455 390.912 367.404 390.594 367.404C390.166 367.404 389.806 367.497 389.514 367.683C389.226 367.868 389.084 368.109 389.088 368.404C389.084 368.658 389.177 368.865 389.366 369.024C389.56 369.183 389.878 369.313 390.321 369.416L391.81 369.734C392.635 369.912 393.249 370.194 393.65 370.58C394.056 370.967 394.26 371.472 394.264 372.097C394.26 372.647 394.099 373.132 393.781 373.552C393.467 373.969 393.029 374.294 392.469 374.529C391.908 374.764 391.264 374.882 390.537 374.882C389.469 374.882 388.609 374.658 387.957 374.211C387.306 373.76 386.917 373.133 386.792 372.33L388.798 372.137C388.889 372.531 389.082 372.829 389.378 373.029C389.673 373.23 390.058 373.33 390.531 373.33C391.02 373.33 391.412 373.23 391.707 373.029C392.006 372.829 392.156 372.58 392.156 372.285C392.156 372.035 392.06 371.829 391.866 371.666C391.677 371.503 391.381 371.378 390.98 371.291L389.491 370.978C388.654 370.804 388.035 370.51 387.633 370.097C387.232 369.681 387.033 369.154 387.037 368.518C387.033 367.98 387.179 367.514 387.474 367.12C387.774 366.722 388.188 366.416 388.719 366.2C389.253 365.98 389.868 365.87 390.565 365.87C391.588 365.87 392.393 366.088 392.98 366.524C393.571 366.959 393.936 367.548 394.077 368.291ZM405.753 377.984V373.336H405.667C405.561 373.548 405.408 373.774 405.207 374.012C405.006 374.247 404.741 374.448 404.412 374.615C404.082 374.781 403.667 374.865 403.167 374.865C402.482 374.865 401.868 374.688 401.327 374.336C400.785 373.984 400.357 373.472 400.042 372.802C399.728 372.132 399.571 371.317 399.571 370.359C399.571 369.389 399.73 368.571 400.048 367.904C400.37 367.234 400.804 366.728 401.349 366.387C401.895 366.043 402.503 365.87 403.173 365.87C403.685 365.87 404.105 365.957 404.435 366.132C404.764 366.302 405.025 366.508 405.219 366.751C405.412 366.99 405.561 367.215 405.667 367.427H405.792V365.984H407.815V377.984H405.753ZM403.741 373.177C404.177 373.177 404.548 373.06 404.855 372.825C405.162 372.586 405.395 372.255 405.554 371.83C405.713 371.406 405.792 370.912 405.792 370.347C405.792 369.783 405.713 369.293 405.554 368.876C405.399 368.459 405.167 368.135 404.861 367.904C404.558 367.673 404.185 367.558 403.741 367.558C403.283 367.558 402.9 367.677 402.594 367.916C402.287 368.154 402.056 368.484 401.9 368.904C401.745 369.325 401.667 369.806 401.667 370.347C401.667 370.893 401.745 371.38 401.9 371.808C402.06 372.232 402.292 372.567 402.599 372.813C402.91 373.056 403.291 373.177 403.741 373.177ZM415.491 371.041V365.984H417.548V374.711H415.554V373.16H415.463C415.266 373.649 414.942 374.048 414.491 374.359C414.044 374.669 413.493 374.825 412.838 374.825C412.266 374.825 411.76 374.698 411.321 374.444C410.885 374.186 410.544 373.813 410.298 373.325C410.052 372.832 409.929 372.238 409.929 371.541V365.984H411.986V371.222C411.986 371.776 412.137 372.215 412.44 372.541C412.743 372.866 413.141 373.029 413.633 373.029C413.936 373.029 414.23 372.955 414.514 372.808C414.798 372.66 415.031 372.44 415.213 372.149C415.399 371.853 415.491 371.484 415.491 371.041ZM423.527 374.882C422.652 374.882 421.896 374.7 421.26 374.336C420.627 373.969 420.14 373.45 419.8 372.779C419.459 372.105 419.288 371.311 419.288 370.399C419.288 369.501 419.459 368.713 419.8 368.035C420.144 367.353 420.625 366.823 421.243 366.444C421.86 366.061 422.586 365.87 423.419 365.87C423.957 365.87 424.464 365.957 424.942 366.132C425.423 366.302 425.847 366.567 426.214 366.927C426.586 367.287 426.877 367.745 427.089 368.302C427.301 368.855 427.408 369.514 427.408 370.279V370.91H420.254V369.524H425.436C425.432 369.13 425.347 368.779 425.18 368.472C425.014 368.162 424.781 367.918 424.481 367.74C424.186 367.561 423.841 367.472 423.447 367.472C423.027 367.472 422.658 367.575 422.339 367.779C422.021 367.98 421.773 368.245 421.595 368.575C421.421 368.901 421.332 369.258 421.328 369.649V370.859C421.328 371.366 421.421 371.802 421.606 372.166C421.792 372.526 422.051 372.802 422.385 372.995C422.718 373.185 423.108 373.279 423.555 373.279C423.854 373.279 424.125 373.238 424.368 373.154C424.61 373.067 424.82 372.94 424.998 372.774C425.176 372.607 425.311 372.401 425.402 372.154L427.322 372.37C427.201 372.878 426.97 373.321 426.629 373.7C426.292 374.075 425.86 374.366 425.334 374.575C424.807 374.779 424.205 374.882 423.527 374.882ZM436.912 378.166C436.173 378.166 435.539 378.065 435.008 377.865C434.478 377.668 434.052 377.402 433.73 377.069C433.408 376.736 433.185 376.366 433.06 375.961L434.912 375.512C434.995 375.683 435.116 375.851 435.275 376.018C435.435 376.188 435.649 376.329 435.917 376.438C436.19 376.552 436.533 376.609 436.946 376.609C437.529 376.609 438.012 376.467 438.395 376.183C438.777 375.902 438.969 375.44 438.969 374.796V373.143H438.866C438.76 373.355 438.605 373.573 438.4 373.796C438.2 374.02 437.933 374.207 437.599 374.359C437.27 374.51 436.855 374.586 436.355 374.586C435.685 374.586 435.077 374.429 434.531 374.115C433.989 373.796 433.558 373.323 433.236 372.694C432.917 372.061 432.758 371.27 432.758 370.319C432.758 369.361 432.917 368.552 433.236 367.893C433.558 367.23 433.991 366.728 434.537 366.387C435.082 366.043 435.69 365.87 436.361 365.87C436.872 365.87 437.292 365.957 437.622 366.132C437.955 366.302 438.22 366.508 438.417 366.751C438.614 366.99 438.764 367.215 438.866 367.427H438.98V365.984H441.008V374.853C441.008 375.599 440.83 376.217 440.474 376.705C440.118 377.194 439.631 377.56 439.014 377.802C438.397 378.044 437.696 378.166 436.912 378.166ZM436.929 372.972C437.364 372.972 437.736 372.866 438.042 372.654C438.349 372.442 438.582 372.137 438.741 371.74C438.9 371.342 438.98 370.865 438.98 370.308C438.98 369.758 438.9 369.277 438.741 368.865C438.586 368.452 438.355 368.132 438.048 367.904C437.745 367.673 437.372 367.558 436.929 367.558C436.47 367.558 436.088 367.677 435.781 367.916C435.474 368.154 435.243 368.482 435.088 368.899C434.933 369.311 434.855 369.781 434.855 370.308C434.855 370.842 434.933 371.31 435.088 371.711C435.247 372.109 435.48 372.419 435.787 372.643C436.097 372.863 436.478 372.972 436.929 372.972ZM446.98 374.882C446.105 374.882 445.349 374.7 444.713 374.336C444.08 373.969 443.594 373.45 443.253 372.779C442.912 372.105 442.741 371.311 442.741 370.399C442.741 369.501 442.912 368.713 443.253 368.035C443.597 367.353 444.078 366.823 444.696 366.444C445.313 366.061 446.039 365.87 446.872 365.87C447.41 365.87 447.917 365.957 448.395 366.132C448.876 366.302 449.3 366.567 449.667 366.927C450.039 367.287 450.33 367.745 450.542 368.302C450.755 368.855 450.861 369.514 450.861 370.279V370.91H443.707V369.524H448.889C448.885 369.13 448.8 368.779 448.633 368.472C448.467 368.162 448.234 367.918 447.935 367.74C447.639 367.561 447.294 367.472 446.9 367.472C446.48 367.472 446.111 367.575 445.792 367.779C445.474 367.98 445.226 368.245 445.048 368.575C444.874 368.901 444.785 369.258 444.781 369.649V370.859C444.781 371.366 444.874 371.802 445.06 372.166C445.245 372.526 445.505 372.802 445.838 372.995C446.171 373.185 446.561 373.279 447.008 373.279C447.308 373.279 447.578 373.238 447.821 373.154C448.063 373.067 448.274 372.94 448.452 372.774C448.63 372.607 448.764 372.401 448.855 372.154L450.775 372.37C450.654 372.878 450.423 373.321 450.082 373.7C449.745 374.075 449.313 374.366 448.787 374.575C448.26 374.779 447.658 374.882 446.98 374.882ZM452.601 374.711V365.984H454.595V367.438H454.686C454.845 366.935 455.118 366.546 455.504 366.274C455.894 365.997 456.339 365.859 456.839 365.859C456.953 365.859 457.08 365.865 457.22 365.876C457.364 365.883 457.483 365.897 457.578 365.916V367.808C457.491 367.777 457.353 367.751 457.163 367.728C456.978 367.702 456.798 367.688 456.623 367.688C456.248 367.688 455.911 367.77 455.612 367.933C455.317 368.092 455.084 368.313 454.913 368.597C454.743 368.882 454.658 369.209 454.658 369.58V374.711H452.601ZM461.3 374.887C460.747 374.887 460.248 374.789 459.805 374.592C459.366 374.391 459.017 374.096 458.76 373.705C458.506 373.315 458.379 372.834 458.379 372.262C458.379 371.77 458.47 371.363 458.652 371.041C458.834 370.719 459.082 370.461 459.396 370.268C459.711 370.075 460.065 369.929 460.459 369.83C460.856 369.728 461.267 369.654 461.692 369.609C462.203 369.556 462.618 369.508 462.936 369.467C463.254 369.421 463.485 369.353 463.629 369.262C463.777 369.168 463.851 369.022 463.851 368.825V368.791C463.851 368.363 463.724 368.031 463.47 367.796C463.216 367.561 462.851 367.444 462.373 367.444C461.87 367.444 461.47 367.554 461.175 367.774C460.883 367.993 460.686 368.253 460.584 368.552L458.663 368.279C458.815 367.749 459.065 367.306 459.413 366.95C459.762 366.59 460.188 366.321 460.692 366.143C461.195 365.961 461.752 365.87 462.362 365.87C462.783 365.87 463.201 365.919 463.618 366.018C464.034 366.116 464.415 366.279 464.76 366.507C465.104 366.73 465.381 367.035 465.589 367.421C465.801 367.808 465.908 368.291 465.908 368.87V374.711H463.93V373.512H463.862C463.737 373.755 463.561 373.982 463.334 374.194C463.11 374.402 462.828 374.571 462.487 374.7C462.15 374.825 461.754 374.887 461.3 374.887ZM461.834 373.376C462.247 373.376 462.604 373.294 462.908 373.132C463.211 372.965 463.444 372.745 463.606 372.472C463.773 372.2 463.856 371.902 463.856 371.58V370.552C463.792 370.605 463.682 370.654 463.527 370.7C463.375 370.745 463.205 370.785 463.015 370.819C462.826 370.853 462.639 370.883 462.453 370.91C462.267 370.936 462.106 370.959 461.97 370.978C461.663 371.02 461.389 371.088 461.146 371.183C460.904 371.277 460.712 371.41 460.572 371.58C460.432 371.747 460.362 371.963 460.362 372.228C460.362 372.607 460.5 372.893 460.777 373.086C461.053 373.279 461.406 373.376 461.834 373.376ZM467.976 374.711V365.984H469.942V367.467H470.044C470.226 366.967 470.527 366.577 470.947 366.296C471.368 366.012 471.87 365.87 472.453 365.87C473.044 365.87 473.542 366.014 473.947 366.302C474.356 366.586 474.644 366.974 474.811 367.467H474.902C475.095 366.982 475.421 366.596 475.879 366.308C476.341 366.016 476.889 365.87 477.521 365.87C478.324 365.87 478.979 366.124 479.487 366.632C479.995 367.139 480.248 367.88 480.248 368.853V374.711H478.186V369.171C478.186 368.63 478.042 368.234 477.754 367.984C477.466 367.73 477.114 367.603 476.697 367.603C476.201 367.603 475.813 367.758 475.533 368.069C475.256 368.376 475.118 368.776 475.118 369.268V374.711H473.101V369.086C473.101 368.635 472.964 368.276 472.692 368.007C472.423 367.738 472.07 367.603 471.635 367.603C471.339 367.603 471.07 367.679 470.828 367.83C470.586 367.978 470.392 368.188 470.248 368.461C470.104 368.73 470.033 369.044 470.033 369.404V374.711H467.976ZM353.73 398.882C352.855 398.882 352.099 398.7 351.463 398.336C350.83 397.969 350.344 397.45 350.003 396.779C349.662 396.105 349.491 395.311 349.491 394.399C349.491 393.501 349.662 392.713 350.003 392.035C350.347 391.353 350.828 390.823 351.446 390.444C352.063 390.061 352.789 389.87 353.622 389.87C354.16 389.87 354.667 389.957 355.145 390.132C355.626 390.302 356.05 390.567 356.417 390.927C356.789 391.287 357.08 391.745 357.292 392.302C357.505 392.855 357.611 393.514 357.611 394.279V394.91H350.457V393.524H355.639C355.635 393.13 355.55 392.779 355.383 392.472C355.217 392.162 354.984 391.918 354.685 391.74C354.389 391.561 354.044 391.472 353.65 391.472C353.23 391.472 352.861 391.575 352.542 391.779C352.224 391.98 351.976 392.245 351.798 392.575C351.624 392.901 351.535 393.258 351.531 393.649V394.859C351.531 395.366 351.624 395.802 351.81 396.166C351.995 396.526 352.255 396.802 352.588 396.995C352.921 397.185 353.311 397.279 353.758 397.279C354.058 397.279 354.328 397.238 354.571 397.154C354.813 397.067 355.024 396.94 355.202 396.774C355.38 396.607 355.514 396.401 355.605 396.154L357.525 396.37C357.404 396.878 357.173 397.321 356.832 397.7C356.495 398.075 356.063 398.366 355.537 398.575C355.01 398.779 354.408 398.882 353.73 398.882ZM360.845 389.984L362.606 393.205L364.396 389.984H366.572L363.942 394.347L366.618 398.711H364.453L362.606 395.569L360.777 398.711H358.595L361.254 394.347L358.663 389.984H360.845ZM368.163 401.984V389.984H370.186V391.427H370.305C370.411 391.215 370.561 390.99 370.754 390.751C370.947 390.508 371.209 390.302 371.538 390.132C371.868 389.957 372.288 389.87 372.8 389.87C373.474 389.87 374.082 390.043 374.623 390.387C375.169 390.728 375.601 391.234 375.919 391.904C376.241 392.571 376.402 393.389 376.402 394.359C376.402 395.317 376.245 396.132 375.93 396.802C375.616 397.472 375.188 397.984 374.646 398.336C374.104 398.688 373.491 398.865 372.805 398.865C372.305 398.865 371.89 398.781 371.561 398.615C371.231 398.448 370.966 398.247 370.765 398.012C370.569 397.774 370.415 397.548 370.305 397.336H370.22V401.984H368.163ZM370.18 394.347C370.18 394.912 370.26 395.406 370.419 395.83C370.582 396.255 370.815 396.586 371.118 396.825C371.425 397.06 371.796 397.177 372.231 397.177C372.686 397.177 373.067 397.056 373.373 396.813C373.68 396.567 373.911 396.232 374.067 395.808C374.226 395.38 374.305 394.893 374.305 394.347C374.305 393.806 374.228 393.325 374.072 392.904C373.917 392.484 373.686 392.154 373.379 391.916C373.072 391.677 372.69 391.558 372.231 391.558C371.792 391.558 371.419 391.673 371.112 391.904C370.805 392.135 370.572 392.459 370.413 392.876C370.258 393.293 370.18 393.783 370.18 394.347ZM382.027 398.882C381.152 398.882 380.396 398.7 379.76 398.336C379.127 397.969 378.64 397.45 378.3 396.779C377.959 396.105 377.788 395.311 377.788 394.399C377.788 393.501 377.959 392.713 378.3 392.035C378.644 391.353 379.125 390.823 379.743 390.444C380.36 390.061 381.086 389.87 381.919 389.87C382.457 389.87 382.964 389.957 383.442 390.132C383.923 390.302 384.347 390.567 384.714 390.927C385.086 391.287 385.377 391.745 385.589 392.302C385.801 392.855 385.908 393.514 385.908 394.279V394.91H378.754V393.524H383.936C383.932 393.13 383.847 392.779 383.68 392.472C383.514 392.162 383.281 391.918 382.981 391.74C382.686 391.561 382.341 391.472 381.947 391.472C381.527 391.472 381.158 391.575 380.839 391.779C380.521 391.98 380.273 392.245 380.095 392.575C379.921 392.901 379.832 393.258 379.828 393.649V394.859C379.828 395.366 379.921 395.802 380.106 396.166C380.292 396.526 380.551 396.802 380.885 396.995C381.218 397.185 381.608 397.279 382.055 397.279C382.354 397.279 382.625 397.238 382.868 397.154C383.11 397.067 383.32 396.94 383.498 396.774C383.676 396.607 383.811 396.401 383.902 396.154L385.822 396.37C385.701 396.878 385.47 397.321 385.129 397.7C384.792 398.075 384.36 398.366 383.834 398.575C383.307 398.779 382.705 398.882 382.027 398.882ZM387.648 398.711V389.984H389.642V391.438H389.733C389.892 390.935 390.165 390.546 390.551 390.274C390.941 389.997 391.386 389.859 391.886 389.859C392 389.859 392.127 389.865 392.267 389.876C392.411 389.883 392.53 389.897 392.625 389.916V391.808C392.538 391.777 392.399 391.751 392.21 391.728C392.024 391.702 391.845 391.688 391.67 391.688C391.295 391.688 390.958 391.77 390.659 391.933C390.363 392.092 390.131 392.313 389.96 392.597C389.79 392.882 389.704 393.209 389.704 393.58V398.711H387.648ZM393.991 398.711V389.984H396.048V398.711H393.991ZM395.025 388.745C394.7 388.745 394.419 388.637 394.185 388.421C393.95 388.202 393.832 387.938 393.832 387.632C393.832 387.321 393.95 387.058 394.185 386.842C394.419 386.622 394.7 386.512 395.025 386.512C395.355 386.512 395.635 386.622 395.866 386.842C396.101 387.058 396.219 387.321 396.219 387.632C396.219 387.938 396.101 388.202 395.866 388.421C395.635 388.637 395.355 388.745 395.025 388.745ZM402.027 398.882C401.152 398.882 400.396 398.7 399.76 398.336C399.127 397.969 398.64 397.45 398.3 396.779C397.959 396.105 397.788 395.311 397.788 394.399C397.788 393.501 397.959 392.713 398.3 392.035C398.644 391.353 399.125 390.823 399.743 390.444C400.36 390.061 401.086 389.87 401.919 389.87C402.457 389.87 402.964 389.957 403.442 390.132C403.923 390.302 404.347 390.567 404.714 390.927C405.086 391.287 405.377 391.745 405.589 392.302C405.801 392.855 405.908 393.514 405.908 394.279V394.91H398.754V393.524H403.936C403.932 393.13 403.847 392.779 403.68 392.472C403.514 392.162 403.281 391.918 402.981 391.74C402.686 391.561 402.341 391.472 401.947 391.472C401.527 391.472 401.158 391.575 400.839 391.779C400.521 391.98 400.273 392.245 400.095 392.575C399.921 392.901 399.832 393.258 399.828 393.649V394.859C399.828 395.366 399.921 395.802 400.106 396.166C400.292 396.526 400.551 396.802 400.885 396.995C401.218 397.185 401.608 397.279 402.055 397.279C402.354 397.279 402.625 397.238 402.868 397.154C403.11 397.067 403.32 396.94 403.498 396.774C403.676 396.607 403.811 396.401 403.902 396.154L405.822 396.37C405.701 396.878 405.47 397.321 405.129 397.7C404.792 398.075 404.36 398.366 403.834 398.575C403.307 398.779 402.705 398.882 402.027 398.882ZM403.015 388.938L401.862 387.484L400.709 388.938H398.908V388.859L401.061 386.404H402.669L404.817 388.859V388.938H403.015ZM409.704 393.597V398.711H407.648V389.984H409.613V391.467H409.716C409.917 390.978 410.237 390.59 410.676 390.302C411.119 390.014 411.667 389.87 412.318 389.87C412.92 389.87 413.445 389.999 413.892 390.257C414.343 390.514 414.691 390.887 414.937 391.376C415.187 391.865 415.31 392.457 415.307 393.154V398.711H413.25V393.472C413.25 392.889 413.098 392.433 412.795 392.103C412.496 391.774 412.081 391.609 411.551 391.609C411.191 391.609 410.871 391.688 410.591 391.847C410.314 392.003 410.096 392.228 409.937 392.524C409.782 392.819 409.704 393.177 409.704 393.597ZM421.204 398.882C420.333 398.882 419.585 398.69 418.96 398.308C418.339 397.925 417.86 397.397 417.523 396.722C417.189 396.044 417.023 395.264 417.023 394.382C417.023 393.495 417.193 392.713 417.534 392.035C417.875 391.353 418.356 390.823 418.977 390.444C419.602 390.061 420.341 389.87 421.193 389.87C421.901 389.87 422.528 390.001 423.074 390.262C423.623 390.52 424.06 390.885 424.386 391.359C424.712 391.829 424.898 392.378 424.943 393.007H422.977C422.898 392.586 422.708 392.236 422.409 391.955C422.113 391.671 421.718 391.529 421.221 391.529C420.801 391.529 420.432 391.643 420.113 391.87C419.795 392.094 419.547 392.416 419.369 392.836C419.195 393.257 419.108 393.76 419.108 394.347C419.108 394.942 419.195 395.454 419.369 395.882C419.543 396.306 419.788 396.633 420.102 396.865C420.42 397.092 420.793 397.205 421.221 397.205C421.524 397.205 421.795 397.149 422.034 397.035C422.276 396.918 422.479 396.749 422.642 396.529C422.805 396.31 422.917 396.043 422.977 395.728H424.943C424.894 396.346 424.712 396.893 424.398 397.37C424.083 397.844 423.655 398.215 423.113 398.484C422.572 398.749 421.935 398.882 421.204 398.882ZM426.632 398.711V389.984H428.689V398.711H426.632ZM427.666 388.745C427.34 388.745 427.06 388.637 426.825 388.421C426.59 388.202 426.473 387.938 426.473 387.632C426.473 387.321 426.59 387.058 426.825 386.842C427.06 386.622 427.34 386.512 427.666 386.512C427.996 386.512 428.276 386.622 428.507 386.842C428.742 387.058 428.859 387.321 428.859 387.632C428.859 387.938 428.742 388.202 428.507 388.421C428.276 388.637 427.996 388.745 427.666 388.745ZM433.315 398.887C432.762 398.887 432.264 398.789 431.821 398.592C431.381 398.391 431.033 398.096 430.775 397.705C430.522 397.315 430.395 396.834 430.395 396.262C430.395 395.77 430.486 395.363 430.667 395.041C430.849 394.719 431.097 394.461 431.412 394.268C431.726 394.075 432.08 393.929 432.474 393.83C432.872 393.728 433.283 393.654 433.707 393.609C434.219 393.556 434.633 393.508 434.952 393.467C435.27 393.421 435.501 393.353 435.645 393.262C435.792 393.168 435.866 393.022 435.866 392.825V392.791C435.866 392.363 435.739 392.031 435.486 391.796C435.232 391.561 434.866 391.444 434.389 391.444C433.885 391.444 433.486 391.554 433.19 391.774C432.899 391.993 432.702 392.253 432.599 392.552L430.679 392.279C430.83 391.749 431.08 391.306 431.429 390.95C431.777 390.59 432.203 390.321 432.707 390.143C433.211 389.961 433.768 389.87 434.378 389.87C434.798 389.87 435.217 389.919 435.633 390.018C436.05 390.116 436.431 390.279 436.775 390.507C437.12 390.73 437.397 391.035 437.605 391.421C437.817 391.808 437.923 392.291 437.923 392.87V398.711H435.946V397.512H435.878C435.753 397.755 435.577 397.982 435.349 398.194C435.126 398.402 434.844 398.571 434.503 398.7C434.166 398.825 433.77 398.887 433.315 398.887ZM433.849 397.376C434.262 397.376 434.62 397.294 434.923 397.132C435.226 396.965 435.459 396.745 435.622 396.472C435.789 396.2 435.872 395.902 435.872 395.58V394.552C435.808 394.605 435.698 394.654 435.542 394.7C435.391 394.745 435.22 394.785 435.031 394.819C434.842 394.853 434.654 394.883 434.469 394.91C434.283 394.936 434.122 394.959 433.986 394.978C433.679 395.02 433.404 395.088 433.162 395.183C432.919 395.277 432.728 395.41 432.588 395.58C432.448 395.747 432.378 395.963 432.378 396.228C432.378 396.607 432.516 396.893 432.792 397.086C433.069 397.279 433.421 397.376 433.849 397.376ZM446.889 392.291L445.014 392.495C444.961 392.306 444.868 392.128 444.736 391.961C444.607 391.794 444.433 391.66 444.213 391.558C443.993 391.455 443.724 391.404 443.406 391.404C442.978 391.404 442.618 391.497 442.327 391.683C442.039 391.868 441.897 392.109 441.9 392.404C441.897 392.658 441.989 392.865 442.179 393.024C442.372 393.183 442.69 393.313 443.133 393.416L444.622 393.734C445.448 393.912 446.061 394.194 446.463 394.58C446.868 394.967 447.073 395.472 447.077 396.097C447.073 396.647 446.912 397.132 446.594 397.552C446.279 397.969 445.842 398.294 445.281 398.529C444.72 398.764 444.077 398.882 443.349 398.882C442.281 398.882 441.421 398.658 440.77 398.211C440.118 397.76 439.73 397.133 439.605 396.33L441.611 396.137C441.702 396.531 441.895 396.829 442.19 397.029C442.486 397.23 442.87 397.33 443.344 397.33C443.832 397.33 444.224 397.23 444.52 397.029C444.819 396.829 444.969 396.58 444.969 396.285C444.969 396.035 444.872 395.829 444.679 395.666C444.489 395.503 444.194 395.378 443.792 395.291L442.304 394.978C441.467 394.804 440.847 394.51 440.446 394.097C440.044 393.681 439.845 393.154 439.849 392.518C439.845 391.98 439.991 391.514 440.287 391.12C440.586 390.722 441.001 390.416 441.531 390.2C442.065 389.98 442.681 389.87 443.378 389.87C444.4 389.87 445.205 390.088 445.792 390.524C446.383 390.959 446.749 391.548 446.889 392.291ZM450.04 398.836C449.695 398.836 449.399 398.715 449.153 398.472C448.907 398.23 448.786 397.935 448.79 397.586C448.786 397.245 448.907 396.954 449.153 396.711C449.399 396.469 449.695 396.347 450.04 396.347C450.373 396.347 450.663 396.469 450.909 396.711C451.159 396.954 451.286 397.245 451.29 397.586C451.286 397.817 451.225 398.027 451.108 398.217C450.994 398.406 450.843 398.558 450.653 398.671C450.468 398.781 450.263 398.836 450.04 398.836Z" fill="white"/>
<rect x="234.699" y="27.1667" width="296.318" height="211.401" rx="10" fill="#011B42"/>
<rect width="286.022" height="202.149" rx="7" transform="matrix(-1 0 0 1 525.868 31.7929)" fill="#121212"/>
<rect x="53.452" y="86.3991" width="238.234" height="430.807" rx="20" fill="#001B42"/>
<rect x="58.663" y="92.2783" width="227.812" height="418.839" rx="17" fill="#121212"/>
<path d="M131.853 86.3392H206.704V95.0073C206.704 98.8733 203.57 102.007 199.704 102.007H138.853C134.987 102.007 131.853 98.8733 131.853 95.0073V86.3392Z" fill="#001B42"/>
<path d="M306.206 226.653L310 215.475L312.432 216.3L309.319 225.469L314.153 227.11L313.472 229.119L306.206 226.653Z" fill="#0066FF"/>
<path d="M321.064 226.175C323.212 223.26 326.703 222.799 329.72 225.023C332.728 227.236 333.319 230.706 331.171 233.623C329.022 236.539 325.531 236.999 322.527 234.785C319.511 232.562 318.916 229.092 321.064 226.175ZM329.054 232.061C330.455 230.16 330.206 227.996 328.472 226.718C326.725 225.429 324.597 225.845 323.196 227.746C321.796 229.647 322.041 231.79 323.787 233.077C325.522 234.352 327.655 233.963 329.052 232.061H329.054Z" fill="#0066FF"/>
<path d="M331.938 243.435L330.38 241.194L342.926 238.568L344.281 240.52L337.428 251.353L335.863 249.097L337.128 247.17L334.182 242.923L331.938 243.435ZM336.379 242.393L338.407 245.316L341.003 241.36L336.379 242.393Z" fill="#0066FF"/>
<path d="M348.076 264.725C344.685 265.692 341.741 264.093 340.783 260.733L339.459 256.084L350.811 252.848L352.136 257.497C353.093 260.856 351.451 263.763 348.076 264.725ZM347.349 262.179C349.528 261.558 350.635 259.915 350.114 258.09L349.489 255.896L342.202 257.973L342.828 260.167C343.348 261.992 345.156 262.802 347.349 262.178V262.179Z" fill="#0066FF"/>
<path d="M340.434 289.651L351.338 294.163L348.186 301.782L346.24 300.977L348.411 295.73L345.95 294.709L343.988 299.456L342.028 298.645L343.991 293.9L341.413 292.834L339.2 298.184L337.24 297.372L340.434 289.651Z" fill="#0066FF"/>
<path d="M335.465 302.887L336.212 304.713C335.158 304.882 334.204 305.436 333.535 306.268C332.667 307.351 332.925 308.048 333.322 308.367C333.92 308.846 334.411 308.77 335.797 307.857L336.515 307.369C337.804 306.523 339.34 305.812 340.995 307.137C342.725 308.524 342.754 310.756 341.178 312.723C340.328 313.755 339.147 314.462 337.836 314.724L337.143 312.758C338.085 312.599 338.94 312.11 339.556 311.38C340.304 310.448 340.049 309.773 339.625 309.433C339.215 309.104 338.816 308.988 337.587 309.782L336.846 310.272C335.324 311.279 333.584 311.97 331.816 310.553C330.498 309.496 329.984 307.306 331.809 305.028C332.713 303.878 334.02 303.113 335.465 302.887Z" fill="#0066FF"/>
<path d="M320.836 315.34L322.92 313.866L328.522 321.784L331.413 319.738L332.629 321.457L324.763 327.022L323.547 325.304L326.438 323.258L320.836 315.34Z" fill="#0066FF"/>
<path d="M308.197 321.229C311.193 320.279 313.788 321.447 314.637 324.123L316.831 331.042L314.398 331.813L312.238 325.002C312.022 324.318 311.542 323.748 310.906 323.418C310.269 323.087 309.527 323.024 308.843 323.24C308.16 323.457 307.59 323.936 307.26 324.573C306.929 325.209 306.865 325.951 307.082 326.635L309.241 333.447L306.809 334.219L304.615 327.3C303.768 324.624 305.201 322.179 308.197 321.229ZM309.047 337.525L311.786 336.658L313.075 333.489L311.312 334.048L309.047 337.525Z" fill="#0066FF"/>
<path d="M286.115 329.388C286.222 325.865 288.639 323.545 292.13 323.651L296.961 323.797L296.603 335.594L291.773 335.448C288.279 335.341 286.008 332.895 286.115 329.388ZM288.761 329.468C288.692 331.732 289.921 333.285 291.818 333.342L294.097 333.411L294.327 325.838L292.047 325.769C290.151 325.713 288.83 327.189 288.761 329.469V329.468Z" fill="#0066FF"/>
<path d="M277.114 333.266L274.652 332.533L278.027 321.219L280.488 321.954L277.114 333.266Z" fill="#0066FF"/>
<path d="M269.209 324.384C267.275 327.446 263.827 328.152 260.659 326.149C257.505 324.154 256.665 320.736 258.601 317.675C260.537 314.615 263.983 313.908 267.138 315.903C270.303 317.906 271.144 321.322 269.209 324.384ZM260.825 319.083C259.563 321.077 259.965 323.218 261.783 324.37C263.616 325.528 265.709 324.965 266.971 322.97C268.234 320.974 267.837 318.856 266.005 317.696C264.184 316.545 262.085 317.086 260.825 319.082V319.083Z" fill="#0066FF"/>
<path d="M242.377 296.327C238.911 297.377 235.84 295.656 234.753 292.069C233.672 288.496 235.272 285.361 238.738 284.312C242.203 283.262 245.275 284.982 246.357 288.555C247.443 292.142 245.842 295.278 242.377 296.327ZM239.5 286.831C237.241 287.515 236.144 289.397 236.768 291.459C237.398 293.535 239.35 294.477 241.609 293.793C243.868 293.109 244.955 291.246 244.325 289.169C243.701 287.109 241.76 286.147 239.5 286.831Z" fill="#0066FF"/>
<path d="M244.474 267.165L236.541 273.856L244.007 274.295L243.841 276.857L232.063 276.09L232.167 274.498L240.1 267.791L232.634 267.368L232.8 264.821L244.577 265.59L244.474 267.165Z" fill="#0066FF"/>
<path d="M246.344 259.333L235.361 255.012L236.302 252.623L245.31 256.168L247.178 251.419L249.153 252.195L246.344 259.333Z" fill="#0066FF"/>
<path d="M242.326 240.802L243.782 238.688L253.504 245.38L252.048 247.494L242.326 240.802Z" fill="#0066FF"/>
<path d="M264.921 233.938L254.604 232.802L259.433 238.516L257.461 240.161L249.899 231.097L251.124 230.077L261.454 231.205L256.612 225.501L258.572 223.866L266.136 232.924L264.921 233.938Z" fill="#0066FF"/>
<path d="M271.836 229.871L267.535 218.878L275.216 215.873L275.983 217.834L270.695 219.903L271.665 222.384L276.449 220.512L277.222 222.488L272.438 224.36L273.455 226.959L278.848 224.85L279.621 226.826L271.836 229.871Z" fill="#0066FF"/>
</g>
<defs>
<linearGradient id="paint0_linear_1_154" x1="251.958" y1="524.804" x2="600.529" y2="480.279" gradientUnits="userSpaceOnUse">
<stop stop-color="#0039A5"/>
<stop offset="1" stop-color="#0066FF"/>
</linearGradient>
<linearGradient id="paint1_linear_1_154" x1="251.888" y1="253.661" x2="255.881" y2="249.758" gradientUnits="userSpaceOnUse">
<stop stop-color="#0039A5"/>
<stop offset="1" stop-color="#0066FF"/>
</linearGradient>
<linearGradient id="paint2_linear_1_154" x1="249.246" y1="277.5" x2="249.325" y2="271.916" gradientUnits="userSpaceOnUse">
<stop stop-color="#0039A5"/>
<stop offset="1" stop-color="#0066FF"/>
</linearGradient>
<linearGradient id="paint3_linear_1_154" x1="275.14" y1="249.606" x2="280.724" y2="249.685" gradientUnits="userSpaceOnUse">
<stop stop-color="#0039A5"/>
<stop offset="1" stop-color="#0066FF"/>
</linearGradient>
<linearGradient id="paint4_linear_1_154" x1="298.969" y1="252.257" x2="302.872" y2="256.251" gradientUnits="userSpaceOnUse">
<stop stop-color="#0039A5"/>
<stop offset="1" stop-color="#0066FF"/>
</linearGradient>
<linearGradient id="paint5_linear_1_154" x1="645.808" y1="622.195" x2="325.533" y2="298.962" gradientUnits="userSpaceOnUse">
<stop stop-color="#0066FF"/>
<stop offset="1" stop-color="#0066FF" stop-opacity="0"/>
</linearGradient>
<linearGradient id="paint6_linear_1_154" x1="-211.189" y1="-131.687" x2="156.133" y2="188.206" gradientUnits="userSpaceOnUse">
<stop stop-color="#00B8E0"/>
<stop offset="1" stop-color="#00B8E0" stop-opacity="0"/>
</linearGradient>
<clipPath id="clip0_1_154">
<rect width="553" height="553" fill="white"/>
</clipPath>
</defs>
</svg>
